<svg width="24" height="24" viewBox="0 0 24 24" fill="none" xmlns="http://www.w3.org/2000/svg">
<path d="M12 8V13L15 16" stroke="white"/>
<path d="M4.15993 14.6483C4.08059 14.3838 3.80185 14.2337 3.53735 14.3131C3.27285 14.3924 3.12275 14.6711 3.20208 14.9356L4.15993 14.6483ZM2.80157 12.2063L7.32323 8.61628L1.95338 6.49541L2.80157 12.2063ZM20.4432 9.76422C21.7919 14.2607 19.2401 18.9992 14.7436 20.3479L15.0309 21.3058C20.0564 19.7984 22.9084 14.5024 21.401 9.47692L20.4432 9.76422ZM14.7436 20.3479C10.2471 21.6966 5.50864 19.1448 4.15993 14.6483L3.20208 14.9356C4.70947 19.9611 10.0054 22.8131 15.0309 21.3058L14.7436 20.3479ZM9.85951 4.06464C14.356 2.71592 19.0945 5.26771 20.4432 9.76422L21.401 9.47692C19.8937 4.45141 14.5977 1.59941 9.57221 3.1068L9.85951 4.06464ZM4.88731 8.27161C6.00492 6.33845 7.61078 4.73914 9.85951 4.06464L9.57221 3.1068C7.01 3.87532 5.22508 5.68938 4.02158 7.7711L4.88731 8.27161Z" fill="white"/>
</svg>
