<svg width="24" height="24" viewBox="0 0 24 24" fill="none" xmlns="http://www.w3.org/2000/svg">
<path d="M20 5.5L15.5 8.09814V6H7.5C4.18628 6 1.5 8.68628 1.5 12C1.5 13.167 1.83264 14.2546 2.40808 15.1753L1.56018 15.7053C0.888184 14.6304 0.5 13.3599 0.5 12C0.5 8.13403 3.63403 5 7.5 5H15.5V2.90186L20 5.5Z" fill="white"/>
<path d="M22.5 12C22.5 10.9456 22.2284 9.95605 21.7518 9.09619L22.6265 8.61133C23.1832 9.61597 23.5 10.7717 23.5 12C23.5 15.866 20.366 19 16.5 19H7.5V21.0981L3 18.5L7.5 15.9019V18H16.5C19.8137 18 22.5 15.3137 22.5 12Z" fill="white"/>
</svg>
