<svg width="23" height="24" viewBox="0 0 23 24" fill="none" xmlns="http://www.w3.org/2000/svg">
<path d="M12.0667 7.33331C9.46666 7.33331 7.39999 9.39998 7.39999 12C7.39999 14.6 9.46666 16.6666 12.0667 16.6666C14.6667 16.6666 16.7333 14.6 16.7333 12C16.7333 9.39998 14.6667 7.33331 12.0667 7.33331ZM12.0667 15.3333C10.2 15.3333 8.73333 13.8666 8.73333 12C8.73333 10.1333 10.2 8.66665 12.0667 8.66665C13.9333 8.66665 15.4 10.1333 15.4 12C15.4 13.8666 13.9333 15.3333 12.0667 15.3333Z" fill="white"/>
<path d="M21.8667 9.79998L20 9.19998L19.6 8.19998L20.5333 6.46665C20.7333 6.06665 20.6667 5.53331 20.3333 5.19998L18.7333 3.59998C18.4 3.26665 17.8667 3.19998 17.4667 3.39998L15.7333 4.33331L14.7333 3.93331L14.1333 2.06665C14 1.66665 13.6 1.33331 13.1333 1.33331H10.8667C10.4 1.33331 9.99999 1.66665 9.93333 2.13331L9.33333 3.99998C8.93333 4.06665 8.59999 4.19998 8.26666 4.39998L6.53333 3.46665C6.13333 3.26665 5.59999 3.33331 5.26666 3.66665L3.66666 5.26665C3.33333 5.59998 3.26666 6.13331 3.46666 6.53331L4.33333 8.19998C4.19999 8.53331 4.06666 8.93331 3.93333 9.26665L2.06666 9.86665C1.66666 9.99998 1.33333 10.4 1.33333 10.8666V13.1333C1.33333 13.6 1.66666 14 2.13333 14.1333L3.99999 14.7333L4.39999 15.7333L3.46666 17.4666C3.26666 17.8666 3.33333 18.4 3.66666 18.7333L5.26666 20.3333C5.59999 20.6666 6.13333 20.7333 6.53333 20.5333L8.26666 19.6L9.26666 20L9.86666 21.9333C9.99999 22.3333 10.4 22.6666 10.8667 22.6666H13.1333C13.6 22.6666 14 22.3333 14.1333 21.9333L14.7333 20L15.7333 19.6L17.4667 20.5333C17.8667 20.7333 18.4 20.6666 18.7333 20.3333L20.3333 18.7333C20.6667 18.4 20.7333 17.8666 20.5333 17.4666L19.6 15.7333L20 14.7333L21.9333 14.1333C22.3333 14 22.6667 13.6 22.6667 13.1333V10.8666C22.6667 10.4 22.3333 9.93331 21.8667 9.79998ZM21.3333 12.9333L18.9333 13.6666L18.8667 14L18.2667 15.4L18.0667 15.7333L19.2667 17.9333L17.9333 19.2666L15.7333 18.0666L15.4 18.2666C14.9333 18.5333 14.4667 18.7333 14 18.8666L13.6667 18.9333L12.9333 21.3333H11.0667L10.3333 18.9333L9.99999 18.8666L8.59999 18.2666L8.26666 18.0666L6.06666 19.2666L4.73333 17.9333L5.93333 15.7333L5.73333 15.4C5.46666 14.9333 5.26666 14.4666 5.13333 14L5.06666 13.6666L2.66666 12.9333V11.0666L4.93333 10.4L5.06666 10.0666C5.19999 9.53331 5.39999 9.06665 5.66666 8.59998L5.86666 8.26665L4.73333 6.06665L6.06666 4.73331L8.19999 5.93331L8.53333 5.73331C8.99999 5.46665 9.46666 5.26665 9.99999 5.13331L10.3333 4.99998L11.0667 2.66665H12.9333L13.6667 4.99998L14 5.13331C14.4667 5.26665 14.9333 5.46665 15.4 5.73331L15.7333 5.93331L17.9333 4.73331L19.2667 6.06665L18.0667 8.26665L18.2667 8.59998C18.5333 9.06665 18.7333 9.53331 18.8667 9.99998L18.9333 10.3333L21.3333 11.0666V12.9333Z" fill="white"/>
</svg>
