<svg width="24" height="24" viewBox="0 0 24 24" fill="none" xmlns="http://www.w3.org/2000/svg">
<path fill-rule="evenodd" clip-rule="evenodd" d="M12.1367 7.49442C13.5129 6.32173 14.5 5.5 18 5.5V6.5C15 6.5 14.0496 7.17827 12.7852 8.25558C11.5114 9.34097 10.3703 10.798 9.20851 12.3053C9.16178 12.3659 9.11502 12.4266 9.0682 12.4873C7.96595 13.9182 6.83786 15.3826 5.59114 16.4977C4.28305 17.6677 2.79404 18.5 1 18.5V17.5C2.45596 17.5 3.71695 16.8323 4.92448 15.7523C6.1003 14.7007 7.1775 13.3027 8.30122 11.8443C8.33959 11.7945 8.37801 11.7447 8.4165 11.6947C9.56717 10.202 10.7699 8.65903 12.1367 7.49442Z" fill="white"/>
<path d="M22 6L17.5 8.59808L17.5 3.40192L22 6Z" fill="white"/>
<path d="M22 18L17.5 20.5981L17.5 15.4019L22 18Z" fill="white"/>
<path d="M18 18.5C14.5 18.5 13.5129 17.6783 12.1367 16.5056C11.472 15.9392 10.8461 15.2833 10.2461 14.5873L11.0199 13.9533C11.5889 14.6126 12.1717 15.2216 12.7852 15.7444C14.0496 16.8217 14.5 17.5 18 17.5V18.5Z" fill="white"/>
<path d="M7.22575 9.20269C6.69957 8.58773 6.1576 8.00896 5.59114 7.50232C4.28305 6.33235 2.79404 5.5 1 5.5V6.5C2.45596 6.5 3.71695 7.16765 4.92448 8.24768C5.44903 8.71684 5.95394 9.25492 6.45212 9.83653L7.22575 9.20269Z" fill="white"/>
</svg>